<svg version="1.1" id="BtcTurkBitcoinBTC" xmlns="http://www.w3.org/2000/svg" xmlns:xlink="http://www.w3.org/1999/xlink" x="0px" y="0px"
	 width="48px" height="48px" viewBox="0 0 48 48" enable-background="new 0 0 48 48" xml:space="preserve">
<title>BtcTurk Bitcoin BTC</title>
<path fill="#0497cb" d="M38.14,26.849c-0.652-1.066-1.563-1.896-2.67-2.499c-0.768-0.432-1.903-0.831-3.372-1.181
	c1.366-0.455,2.459-1.016,3.306-1.701c0.832-0.683,1.467-1.473,1.922-2.368c0.436-0.903,0.651-1.831,0.651-2.832
	c0-1.366-0.406-2.621-1.238-3.767c-0.845-1.13-2.036-2.018-3.617-2.637c-0.597-0.244-1.306-0.415-2.091-0.561V4h-5.313v4.955H22.3
	V4h-5.31v4.955H8.886v4.166h1.252c0.814,0,1.384,0.065,1.668,0.211c0.276,0.154,0.496,0.333,0.61,0.586
	c0.122,0.252,0.187,0.814,0.187,1.716v16.779c0,0.898-0.049,1.448-0.187,1.707c-0.114,0.263-0.333,0.438-0.61,0.586
	c-0.301,0.132-0.854,0.197-1.668,0.197H8.886v4.166h8.104V44h5.313v-4.961h3.037c0.13,0,0.261,0,0.38,0V44h5.297v-5.387
	c0.901-0.16,1.685-0.357,2.35-0.635c1.839-0.699,3.238-1.74,4.25-3.075c1.01-1.353,1.497-2.823,1.497-4.419
	C39.114,29.15,38.787,27.93,38.14,26.849z M20.333,13.821h0.018h3.434c2.019,0,3.415,0.114,4.183,0.35
	c0.781,0.228,1.381,0.635,1.779,1.196c0.418,0.569,0.617,1.237,0.617,2.034c0,0.765-0.218,1.432-0.652,2.018
	c-0.433,0.578-1.066,1.017-1.929,1.303c-0.87,0.293-2.204,0.432-4.003,0.432h-3.449L20.333,13.821L20.333,13.821z M30.066,32.396
	c-0.618,0.749-1.352,1.254-2.229,1.481c-0.889,0.244-1.986,0.374-3.302,0.358h-2.295c-0.749,0-1.238-0.049-1.399-0.114
	c-0.171-0.065-0.302-0.195-0.367-0.423c-0.073-0.163-0.106-0.7-0.122-1.619v-6.534h4.068c1.766,0,3.083,0.171,3.964,0.488
	c0.888,0.317,1.522,0.781,1.951,1.399c0.432,0.618,0.652,1.366,0.652,2.262C30.984,30.745,30.683,31.648,30.066,32.396z"/>
</svg>
