<svg width="31" height="31" viewBox="0 0 31 31" fill="none" xmlns="http://www.w3.org/2000/svg">
<path d="M15.4761 30.1366C23.7124 29.979 30.2632 23.2633 30.1077 15.1366C29.9523 7.00984 23.1494 0.549574 14.9131 0.707138C6.67683 0.864701 0.126031 7.58043 0.281498 15.7071C0.436966 23.8338 7.23983 30.2941 15.4761 30.1366Z" fill="#C4C4C4"/>
<path d="M14.9627 4.21522L15.1231 12.5991L8.45587 15.4244L14.9627 4.21522Z" fill="#ACACAC"/>
<path d="M15.1191 12.363L15.2521 19.3135L8.3713 15.4517L15.1191 12.363Z" fill="#5C5C5C"/>
<path d="M15.0337 12.366L15.1667 19.3164L21.8947 15.1943L15.0337 12.366Z" fill="#373737"/>
<path d="M15.1862 20.3513L15.2949 26.0306L21.9289 16.3694L15.1862 20.3513Z" fill="#5C5C5C"/>
<path d="M15.2843 20.3503L15.393 26.0296L8.39429 16.6292L15.2843 20.3503Z" fill="#ACACAC"/>
<path d="M14.9629 4.21436L15.1233 12.5982L21.8937 15.1669L14.9629 4.21436Z" fill="#5C5C5C"/>
</svg>
