<?xml version="1.0" encoding="UTF-8" standalone="no"?>
<svg
   xmlns:dc="http://purl.org/dc/elements/1.1/"
   xmlns:cc="http://creativecommons.org/ns#"
   xmlns:rdf="http://www.w3.org/1999/02/22-rdf-syntax-ns#"
   xmlns:svg="http://www.w3.org/2000/svg"
   xmlns="http://www.w3.org/2000/svg"
   xmlns:xlink="http://www.w3.org/1999/xlink"
   xmlns:sodipodi="http://sodipodi.sourceforge.net/DTD/sodipodi-0.dtd"
   xmlns:inkscape="http://www.inkscape.org/namespaces/inkscape"
   width="32"
   height="32"
   version="1.1"
   id="svg41"
   sodipodi:docname="usdt1.svg"
   inkscape:version="0.92.3 (2405546, 2018-03-11)">
  <metadata
     id="metadata45">
    <rdf:RDF>
      <cc:Work
         rdf:about="">
        <dc:format>image/svg+xml</dc:format>
        <dc:type
           rdf:resource="http://purl.org/dc/dcmitype/StillImage" />
        <dc:title></dc:title>
      </cc:Work>
    </rdf:RDF>
  </metadata>
  <sodipodi:namedview
     pagecolor="#ffffff"
     bordercolor="#666666"
     borderopacity="1"
     objecttolerance="10"
     gridtolerance="10"
     guidetolerance="10"
     inkscape:pageopacity="0"
     inkscape:pageshadow="2"
     inkscape:window-width="640"
     inkscape:window-height="480"
     id="namedview43"
     showgrid="false"
     inkscape:zoom="7.375"
     inkscape:cx="16"
     inkscape:cy="16"
     inkscape:window-x="27"
     inkscape:window-y="0"
     inkscape:window-maximized="0"
     inkscape:current-layer="svg41" />
  <defs
     id="defs25">
    <linearGradient
       id="c"
       x1="16"
       x2="16"
       y1="0"
       y2="30"
       gradientUnits="userSpaceOnUse">
      <stop
         offset="0%"
         stop-color="#FFF"
         stop-opacity=".5"
         id="stop2" />
      <stop
         offset="100%"
         stop-opacity=".5"
         id="stop4" />
    </linearGradient>
    <circle
       id="b"
       cx="16"
       cy="15"
       r="15" />
    <filter
       id="a"
       width="111.7%"
       height="111.7%"
       x="-5.8%"
       y="-4.2%"
       filterUnits="objectBoundingBox">
      <feOffset
         dy=".5"
         in="SourceAlpha"
         result="shadowOffsetOuter1"
         id="feOffset8" />
      <feGaussianBlur
         in="shadowOffsetOuter1"
         result="shadowBlurOuter1"
         stdDeviation=".5"
         id="feGaussianBlur10" />
      <feComposite
         in="shadowBlurOuter1"
         in2="SourceAlpha"
         operator="out"
         result="shadowBlurOuter1"
         id="feComposite12" />
      <feColorMatrix
         in="shadowBlurOuter1"
         values="0 0 0 0 0 0 0 0 0 0 0 0 0 0 0 0 0 0 0.199473505 0"
         id="feColorMatrix14" />
    </filter>
    <path
       id="e"
       d="M17.922 16.383v-.002c-.11.008-.677.042-1.942.042-1.01 0-1.721-.03-1.971-.042v.003c-3.888-.171-6.79-.848-6.79-1.658 0-.809 2.902-1.486 6.79-1.66v2.644c.254.018.982.061 1.988.061 1.207 0 1.812-.05 1.925-.06v-2.643c3.88.173 6.775.85 6.775 1.658 0 .81-2.895 1.485-6.775 1.657m0-3.59v-2.366h5.414V6.819H8.595v3.608h5.414v2.365c-4.4.202-7.709 1.074-7.709 2.118 0 1.044 3.309 1.915 7.709 2.118v7.582h3.913v-7.584c4.393-.202 7.694-1.073 7.694-2.116 0-1.043-3.301-1.914-7.694-2.117" />
    <filter
       id="d"
       width="118.1%"
       height="119.7%"
       x="-9.1%"
       y="-7%"
       filterUnits="objectBoundingBox">
      <feOffset
         dy=".5"
         in="SourceAlpha"
         result="shadowOffsetOuter1"
         id="feOffset18" />
      <feGaussianBlur
         in="shadowOffsetOuter1"
         result="shadowBlurOuter1"
         stdDeviation=".5"
         id="feGaussianBlur20" />
      <feColorMatrix
         in="shadowBlurOuter1"
         values="0 0 0 0 0 0 0 0 0 0 0 0 0 0 0 0 0 0 0.204257246 0"
         id="feColorMatrix22" />
    </filter>
  </defs>
  <g
     id="g39"
     transform="matrix(1.0487932,0,0,1.0442734,-0.64582953,0.46652599)"
     style="fill:none;fill-rule:evenodd">
    <use
       xlink:href="#b"
       id="use27"
       style="fill:#000000;filter:url(#a)"
       x="0"
       y="0"
       width="100%"
       height="100%" />
    <use
       xlink:href="#b"
       id="use29"
       style="fill:#26a17b"
       x="0"
       y="0"
       width="100%"
       height="100%" />
    <use
       style="mix-blend-mode:soft-light;fill:url(#c)"
       xlink:href="#b"
       id="use31"
       x="0"
       y="0"
       width="100%"
       height="100%" />
    <circle
       cx="16"
       cy="15"
       r="14.5"
       id="circle33"
       style="stroke:#000000;stroke-opacity:0.097" />
    <use
       xlink:href="#e"
       id="use35"
       style="fill:#000000;filter:url(#d)"
       x="0"
       y="0"
       width="100%"
       height="100%" />
    <use
       xlink:href="#e"
       id="use37"
       style="fill:#ffffff"
       x="0"
       y="0"
       width="100%"
       height="100%" />
  </g>
</svg>
