<svg version="1.1" id="BtcTurkMakerMKR" xmlns="http://www.w3.org/2000/svg" xmlns:xlink="http://www.w3.org/1999/xlink" x="0px"
	 y="0px" width="48px" height="48px" viewBox="0 0 48 48" enable-background="new 0 0 48 48" xml:space="preserve">
<title>BtcTurk Maker MKR</title>
<g>
	<path fill="#0497CB" d="M42.797,13.119L26.512,25.375c-0.503,0.378-0.796,0.967-0.801,1.596v8.313h3.432v-7.6l13.43-10.108v17.708
		H46V14.715c-0.003-0.426-0.145-0.84-0.398-1.182C44.943,12.644,43.686,12.458,42.797,13.119z"/>
	<path fill="#0497CB" d="M21.491,25.375L5.203,13.114c-0.888-0.662-2.146-0.475-2.806,0.414C2.141,13.872,2.003,14.288,2,14.715
		v20.567h3.429V17.575l13.43,10.108v7.6h3.427v-8.313C22.286,26.342,21.991,25.753,21.491,25.375z"/>
</g>
</svg>
