<svg version="1.1" id="BtcTurkTetherUSDT" xmlns="http://www.w3.org/2000/svg" xmlns:xlink="http://www.w3.org/1999/xlink"
	 x="0px" y="0px" width="48px" height="48px" viewBox="0 0 48 48" enable-background="new 0 0 48 48" xml:space="preserve">
<title>BtcTurk Tether USDT</title>
<path fill="#0497CB" d="M27.863,18.753v-4.654h10.65V7h-29v7.099h10.652v4.654C11.51,19.15,5,20.864,5,22.918
	c0,2.055,6.51,3.768,15.165,4.166V42h7.698V27.08C36.502,26.682,43,24.973,43,22.918C43,20.865,36.502,19.153,27.863,18.753z
		M27.863,25.814L27.863,25.814c-0.217,0.014-1.33,0.078-3.817,0.078c-1.988,0-3.386-0.058-3.879-0.082v0.008
	C12.52,25.48,6.81,24.15,6.81,22.554c0-1.591,5.71-2.924,13.357-3.264v5.201c0.501,0.032,1.934,0.118,3.912,0.118
	c2.375,0,3.563-0.1,3.788-0.118v-5.197c7.633,0.339,13.326,1.67,13.326,3.26C41.191,24.147,35.496,25.479,27.863,25.814z"/>
</svg>
